# xmcd
#
# Track frame offsets:
#   150
#   27072
#   44940
#   58980
#   77092
#   96837
#   114657
#   129635
#   147005
#   165147
#   189720
#   208107
#
# Disc length: 3119 seconds
#
# Revision: 0
# Processed by: cddbd v1.4PL0 Copyright (c) Steve Scherf et al.
# Submitted via: CD-Datenbank 4.*
#
DISCID=ab0c2d0c
DTITLE=Hugh Pool - Spirits Treat Me Gently
DYEAR=1993
DGENRE=Blues
TTITLE0=Lets grow old together
TTITLE1=Damn the rains
TTITLE2=If you walk away
TTITLE3=The moon has taken you away
TTITLE4=`Till the cows come here
TTITLE5=Cold night in the harbor
TTITLE6=I just called you up brother
TTITLE7=Woman I found blues
TTITLE8=I'll make a deal with you
TTITLE9=Spirits treat me gently
TTITLE10=Mean town blues
TTITLE11=The things I said that day
EXTD=
EXTT0=
EXTT1=
EXTT2=
EXTT3=
EXTT4=
EXTT5=
EXTT6=
EXTT7=
EXTT8=
EXTT9=
EXTT10=
EXTT11=
PLAYORDER=
